<svg id="Layer_1" data-name="Layer 1" xmlns="http://www.w3.org/2000/svg" viewBox="0 0 587.42 222.34"><defs><style>.cls-1{fill:#235f8d;}.cls-2{fill:#14a49d;}.cls-3{fill:#2d8b91;}.cls-4{fill:#fff;}.cls-5{fill:#48c3d2;}</style></defs><title>Origin_Logo_FullColor_Reverse</title><polygon class="cls-1" points="79.29 53.78 44.44 44.44 53.78 79.29 69.95 69.96 79.29 53.78"/><polygon class="cls-1" points="166.89 79.29 176.23 44.44 141.38 53.78 150.72 69.96 166.89 79.29"/><polygon class="cls-1" points="166.89 141.38 153.8 148.94 142.93 167.31 176.23 176.23 166.89 141.38"/><polygon class="cls-1" points="53.78 141.38 44.44 176.23 77.75 167.31 66.88 148.94 53.78 141.38"/><path class="cls-2" d="M61.83,140.42a57.79,57.79,0,0,1-5-10.58,58.41,58.41,0,0,1-3.28-19.37s0-.1,0-0.14H0l66.88,38.6Z"/><path class="cls-3" d="M0,110.34H53.6A58,58,0,0,1,69.92,70l0,0Z"/><path class="cls-2" d="M70,70l0,0A56.72,56.72,0,0,1,90,56.65a55.77,55.77,0,0,1,20.36-3.84V0Z"/><path class="cls-3" d="M110.34,0V52.81a55.77,55.77,0,0,1,20.36,3.84,56.72,56.72,0,0,1,20,13.29l0,0Z"/><path class="cls-2" d="M150.72,70l0,0.05a58,58,0,0,1,16.32,40.32h53.6Z"/><path class="cls-3" d="M167.08,110.34s0,0.1,0,.14a58.42,58.42,0,0,1-3.28,19.37,57.78,57.78,0,0,1-5,10.57l-5,8.52,66.88-38.6h-53.6Z"/><path class="cls-4" d="M311,85.81c0,17-12.4,29.51-29.91,29.51s-29.87-12.52-29.87-29.51S263.59,56.3,281.11,56.3,311,68.82,311,85.81Zm-48,0c0,11.05,7.6,18.61,18,18.61s18-7.56,18-18.61-7.56-18.62-18-18.62S263.06,74.75,263.06,85.81Z"/><path class="cls-4" d="M355,57.35c13.57,0,20.85,6.42,20.85,17.32,0,9.35-6.5,15.73-17.44,16.79L376,114.26H362.22L345.64,91.62h-3.33v22.64H331V57.35H355ZM342.31,67.8V81.74h12.52c6.18,0,9.39-2.28,9.39-7.07s-3.37-6.87-9.39-6.87H342.31Z"/><path class="cls-4" d="M405.73,114.26H394.39V57.35h11.34v56.9Z"/><path class="cls-4" d="M476,65l-8.17,8a17.69,17.69,0,0,0-13.74-6c-10.4,0-18,7.64-18,18.74,0,11.62,7.93,18.9,17.76,18.9,9.27,0,14.67-4.47,16.18-12.56H455.63V82.68H481.8a28.8,28.8,0,0,1,.16,3.21c0,17.23-11.67,29.38-27.8,29.38-15.77,0-29.75-11.1-29.75-29.47,0-17.19,12.56-29.51,30-29.51C463.47,56.3,471,59.55,476,65Z"/><path class="cls-4" d="M513.38,114.24H502V57.33h11.34v56.9Z"/><path class="cls-4" d="M586,114.26H575.39l-28.86-38,0,38H535.15V57.35h10.61l28.9,38v-38H586v56.9Z"/><path class="cls-5" d="M158.84,140.42a58.09,58.09,0,0,0,8.24-29.94c0-31.85-25.41-57.67-56.74-57.67S53.59,78.63,53.59,110.48a58.08,58.08,0,0,0,8.24,29.94l48.51,81.92Z"/><path class="cls-4" d="M110.34,149.9a39.57,39.57,0,1,1,39.57-39.57A39.61,39.61,0,0,1,110.34,149.9Zm0-60.23A20.67,20.67,0,1,0,131,110.34,20.69,20.69,0,0,0,110.34,89.67Z"/><path class="cls-4" d="M261.89,159.7H257.8V134.38h4.09V159.7Z"/><path class="cls-4" d="M297.91,159.7h-3.69L280.1,141.38l0,18.32H276V134.38h3.69l14.14,18.32V134.38h4.09V159.7Z"/><path class="cls-4" d="M322.86,159.7h-5.1l-9.66-25.32h4.36l7.89,21.18,7.94-21.18h4.23Z"/><path class="cls-4" d="M361.18,159.7H342.72V134.38h18.23v3.83H346.8V145h13.65v3.83H346.8v7h14.38v3.83Z"/><path class="cls-4" d="M391.19,140a14.83,14.83,0,0,0-3.4-1.6,12,12,0,0,0-3.71-.57,9.55,9.55,0,0,0-2.31.26,5.79,5.79,0,0,0-1.8.76A3.72,3.72,0,0,0,378.8,140a3,3,0,0,0-.42,1.56,2.44,2.44,0,0,0,.36,1.36,2.94,2.94,0,0,0,1,.95,6.72,6.72,0,0,0,1.65.64,20.88,20.88,0,0,0,2.21.43l1.75,0.24a19.25,19.25,0,0,1,3,.67,9.13,9.13,0,0,1,2.61,1.27,6.24,6.24,0,0,1,1.84,2,6,6,0,0,1,.7,3,7,7,0,0,1-.81,3.42,7.54,7.54,0,0,1-2.21,2.5,10.17,10.17,0,0,1-3.23,1.54,14.12,14.12,0,0,1-3.9.53,17.23,17.23,0,0,1-2.67-.22,18.69,18.69,0,0,1-2.73-.64,16.31,16.31,0,0,1-2.58-1.06,11,11,0,0,1-2.21-1.48l2.22-3.26a8.11,8.11,0,0,0,1.56,1.1,13.5,13.5,0,0,0,2,.89,13.65,13.65,0,0,0,2.18.59,12.33,12.33,0,0,0,2.23.21,10.15,10.15,0,0,0,2.32-.25,6.36,6.36,0,0,0,1.87-.74,4,4,0,0,0,1.26-1.19,2.76,2.76,0,0,0,.46-1.56,2.45,2.45,0,0,0-1.46-2.26,13,13,0,0,0-4.24-1.16l-2-.27a15.35,15.35,0,0,1-2.76-.65,8.06,8.06,0,0,1-2.41-1.27,6.17,6.17,0,0,1-1.7-2.06,6.47,6.47,0,0,1-.64-3,7.06,7.06,0,0,1,.79-3.37,7.36,7.36,0,0,1,2.14-2.48,9.88,9.88,0,0,1,3.17-1.53,14,14,0,0,1,3.88-.52,16,16,0,0,1,5,.73,17.27,17.27,0,0,1,4.15,2Z"/><path class="cls-4" d="M423,138.25H414.8V159.7h-4.09V138.25h-8.19v-3.87H423v3.87Z"/><path class="cls-4" d="M460.6,159.7h-4.09V138.86l-7.4,18.36h-4.31l-7.4-18.16V159.7h-4.09V134.38h6.28L447,152.46l7.36-18.09h6.28V159.7Z"/><path class="cls-4" d="M493.17,159.7H474.71V134.38h18.23v3.83H478.8V145h13.65v3.83H478.8v7h14.38v3.83Z"/><path class="cls-4" d="M528.52,159.7h-3.69L510.7,141.38l0,18.32h-4.09V134.38h3.69l14.14,18.32V134.38h4.09V159.7Z"/><path class="cls-4" d="M559.33,138.25h-8.19V159.7H547V138.25h-8.19v-3.87h20.47v3.87Z"/><path class="cls-4" d="M585,140a14.83,14.83,0,0,0-3.4-1.6,12,12,0,0,0-3.71-.57,9.55,9.55,0,0,0-2.31.26,5.79,5.79,0,0,0-1.8.76,3.72,3.72,0,0,0-1.17,1.19,3,3,0,0,0-.42,1.56,2.44,2.44,0,0,0,.36,1.36,2.94,2.94,0,0,0,1,.95,6.72,6.72,0,0,0,1.65.64,20.88,20.88,0,0,0,2.21.43l1.75,0.24a19.25,19.25,0,0,1,3,.67,9.13,9.13,0,0,1,2.61,1.27,6.24,6.24,0,0,1,1.84,2,6,6,0,0,1,.7,3,7,7,0,0,1-.81,3.42,7.54,7.54,0,0,1-2.21,2.5,10.17,10.17,0,0,1-3.23,1.54,14.12,14.12,0,0,1-3.9.53,17.23,17.23,0,0,1-2.67-.22,18.69,18.69,0,0,1-2.73-.64,16.31,16.31,0,0,1-2.58-1.06,11,11,0,0,1-2.21-1.48l2.22-3.26a8.11,8.11,0,0,0,1.56,1.1,13.5,13.5,0,0,0,2,.89,13.65,13.65,0,0,0,2.18.59,12.33,12.33,0,0,0,2.23.21,10.15,10.15,0,0,0,2.32-.25,6.36,6.36,0,0,0,1.87-.74,4,4,0,0,0,1.26-1.19,2.76,2.76,0,0,0,.46-1.56,2.45,2.45,0,0,0-1.46-2.26,13,13,0,0,0-4.24-1.16l-2-.27a15.35,15.35,0,0,1-2.76-.65,8.06,8.06,0,0,1-2.41-1.27,6.17,6.17,0,0,1-1.7-2.06,6.47,6.47,0,0,1-.64-3,7.06,7.06,0,0,1,.79-3.37,7.36,7.36,0,0,1,2.14-2.48,9.88,9.88,0,0,1,3.17-1.53,14,14,0,0,1,3.88-.52,16,16,0,0,1,5,.73,17.27,17.27,0,0,1,4.15,2Z"/><polygon class="cls-1" points="79.29 53.78 44.44 44.44 53.78 79.29 69.95 69.96 79.29 53.78"/><polygon class="cls-1" points="166.89 79.29 176.23 44.44 141.38 53.78 150.72 69.96 166.89 79.29"/><polygon class="cls-1" points="166.89 141.38 153.8 148.94 142.93 167.31 176.23 176.23 166.89 141.38"/><polygon class="cls-1" points="53.78 141.38 44.44 176.23 77.75 167.31 66.88 148.94 53.78 141.38"/><path class="cls-2" d="M61.83,140.42a57.79,57.79,0,0,1-5-10.58,58.41,58.41,0,0,1-3.28-19.37s0-.1,0-0.14H0l66.88,38.6Z"/><path class="cls-3" d="M0,110.34H53.6A58,58,0,0,1,69.92,70l0,0Z"/><path class="cls-2" d="M70,70l0,0A56.72,56.72,0,0,1,90,56.65a55.77,55.77,0,0,1,20.36-3.84V0Z"/><path class="cls-3" d="M110.34,0V52.81a55.77,55.77,0,0,1,20.36,3.84,56.72,56.72,0,0,1,20,13.29l0,0Z"/><path class="cls-2" d="M150.72,70l0,0.05a58,58,0,0,1,16.32,40.32h53.6Z"/><path class="cls-3" d="M167.08,110.34s0,0.1,0,.14a58.42,58.42,0,0,1-3.28,19.37,57.78,57.78,0,0,1-5,10.57l-5,8.52,66.88-38.6h-53.6Z"/><path class="cls-5" d="M158.84,140.42a58.09,58.09,0,0,0,8.24-29.94c0-31.85-25.41-57.67-56.74-57.67S53.59,78.63,53.59,110.48a58.08,58.08,0,0,0,8.24,29.94l48.51,81.92Z"/><path class="cls-4" d="M110.34,149.9a39.57,39.57,0,1,1,39.57-39.57A39.61,39.61,0,0,1,110.34,149.9Zm0-60.23A20.67,20.67,0,1,0,131,110.34,20.69,20.69,0,0,0,110.34,89.67Z"/></svg>